<?xml version="1.0" ?><svg data-name="Layer 1" id="Layer_1" viewBox="0 0 128 128" xmlns="http://www.w3.org/2000/svg"><title/><path d="M72.1,56.9c0-2.9-2.6-5.2-5.8-5.2H58.9V62.1h7.4C69.5,62.1,72.1,59.8,72.1,56.9Z"/><path d="M66.3,65.6H58.9V76h7.4c3.2,0,5.8-2.3,5.8-5.2S69.5,65.6,66.3,65.6Z"/><polygon points="34.9 67.3 46.7 67.3 40.8 54.2 34.9 67.3"/><path d="M98,0H30A30,30,0,0,0,0,30V98a30,30,0,0,0,30,30H98a30,30,0,0,0,30-30V30A30,30,0,0,0,98,0ZM54.2,79.4a1.85,1.85,0,0,1-.7.2,1.78,1.78,0,0,1-1.6-1l-3.5-7.7h-15l-3.5,7.7a1.78,1.78,0,0,1-1.6,1,1.85,1.85,0,0,1-.7-.2,1.72,1.72,0,0,1-.9-2.3L39.2,49.2a.1.1,0,0,0,.1-.1c0-.1.1-.1.1-.2l.1-.1.1-.1.1-.1.1-.1c.1,0,.1-.1.2-.1a.1.1,0,0,1,.1-.1h.1c.1-.1.1-.1.2-.1h1c.1.1.1.1.2.1h.1a.1.1,0,0,0,.1.1l.1.1.1.1.1.1.1.1.1.1a.37.37,0,0,0,.1.3L55.1,77.1A1.72,1.72,0,0,1,54.2,79.4Zm12.1.2H57.2a1.79,1.79,0,0,1-1.8-1.8V50a1.79,1.79,0,0,1,1.8-1.8h9.1c5.1,0,9.3,3.9,9.3,8.7a8.41,8.41,0,0,1-3.7,7,8.66,8.66,0,0,1,3.7,7C75.6,75.7,71.4,79.6,66.3,79.6Zm23.1-3.2a10.68,10.68,0,0,0,8.9-4.8,1.83,1.83,0,0,1,2.4-.4,1.45,1.45,0,0,1,.4,2.2,14.24,14.24,0,0,1-11.7,6.4c-8.1,0-14.6-7.1-14.6-15.7s6.6-15.7,14.6-15.7a14.24,14.24,0,0,1,11.7,6.4,1.72,1.72,0,1,1-2.8,2A11.07,11.07,0,0,0,89.4,52c-6.1,0-11.1,5.5-11.1,12.2S83.3,76.4,89.4,76.4Z"/></svg>